<?xml version="1.0" encoding="UTF-8"?>
<svg xmlns="http://www.w3.org/2000/svg" viewBox="0 0 469.88 500.7">
  <g id="a" data-name="Layer 1">
    <g>
      <path d="M102.05,455.38c-1.48,0-2.59-.37-3.7-1.11-1.85-1.11-2.96-2.59-3.33-4.44L.28,81.26c-1.11-4.07,1.11-8.14,5.18-9.25L283.74.22c1.85-.37,4.07-.37,5.55.74,1.85.74,2.96,2.59,3.33,4.44l19.24,74.38c.74,2.22,0,4.44-1.48,6.29s-3.7,2.96-5.92,2.96h-122.12v340.08c0,3.33-2.22,6.29-5.55,7.03l-72.9,18.87c-.74.37-1.11.37-1.85.37ZM16.2,84.59l91.03,354.51,60.32-15.54V81.63c0-4.07,3.33-7.4,7.4-7.4h119.9l-14.8-58.1L16.2,84.59Z" style="fill: #eb7c2a; stroke-width: 0px;"/>
      <path d="M462.48,469.82H174.95c-4.07,0-7.4-3.33-7.4-7.4V81.63c0-4.07,3.33-7.4,7.4-7.4h196.13c1.85,0,3.7.74,5.18,2.22l91.4,91.77c1.48,1.48,2.22,3.33,2.22,5.18v289.01c0,4.07-3.33,7.4-7.4,7.4ZM182.35,455.01h272.73V176.37l-86.96-87.33h-185.77v365.98Z" style="fill: #eb7c2a; stroke-width: 0px;"/>
      <path d="M16.2,84.59l91.03,354.51,60.32-15.54V81.63c0-4.07,3.33-7.4,7.4-7.4h119.9l-14.8-58.1L16.2,84.59Z" style="fill: #fff; stroke-width: 0px;"/>
      <polygon points="182.35 455.01 455.08 455.01 455.08 176.37 368.11 89.03 182.35 89.03 182.35 455.01" style="fill: #fff; stroke-width: 0px;"/>
      <path d="M462.48,177.11h-91.4c-2.22,0-3.7-1.48-3.7-3.7v-91.77c0-1.48.74-2.96,2.22-3.33,1.48-.74,2.96-.37,4.07.74l91.4,91.77c1.11,1.11,1.48,2.59.74,4.07-.37,1.11-1.85,2.22-3.33,2.22ZM374.78,169.7h78.82l-78.82-79.19v79.19Z" style="fill: #eb7c2a; stroke-width: 0px;"/>
      <path d="M408.82,224.1h-180.21c-2.22,0-3.7-1.48-3.7-3.7s1.48-3.7,3.7-3.7h180.21c2.22,0,3.7,1.48,3.7,3.7s-1.48,3.7-3.7,3.7Z" style="fill: #2998e9; stroke-width: 0px;"/>
      <path d="M408.82,286.64h-180.21c-2.22,0-3.7-1.48-3.7-3.7s1.48-3.7,3.7-3.7h180.21c2.22,0,3.7,1.48,3.7,3.7s-1.48,3.7-3.7,3.7Z" style="fill: #2998e9; stroke-width: 0px;"/>
      <path d="M408.82,349.55h-180.21c-2.22,0-3.7-1.48-3.7-3.7s1.48-3.7,3.7-3.7h180.21c2.22,0,3.7,1.48,3.7,3.7,0,1.85-1.48,3.7-3.7,3.7Z" style="fill: #2998e9; stroke-width: 0px;"/>
      <path d="M408.82,412.09h-180.21c-2.22,0-3.7-1.48-3.7-3.7s1.48-3.7,3.7-3.7h180.21c2.22,0,3.7,1.48,3.7,3.7s-1.48,3.7-3.7,3.7Z" style="fill: #2998e9; stroke-width: 0px;"/>
    </g>
  </g>
  <g id="b" data-name="Layer 2">
    <path d="M297.94,265.37h0c2.41,0,4.41,1.2,6.01,2.81l101.43,117.87c2,2.41,2.41,5.61,1.2,8.42s-4.01,4.81-7.22,4.81h-40.49s0,93.41,0,93.41c0,4.41-3.61,8.02-8.02,8.02h-105.84c-4.41,0-8.02-3.61-8.02-8.02v-93.01s-40.49,0-40.49,0c-3.21,0-6.01-2-7.22-4.81s-.8-6.01,1.2-8.42l101.43-117.87c1.6-2,3.61-3.21,6.01-3.21ZM381.73,383.24l-83.79-97.42-83.79,97.82h30.87c4.41,0,8.02,3.61,8.02,8.02v93.01s89.8,0,89.8,0v-93.01c0-4.41,3.61-8.02,8.02-8.02h30.87s0-.4,0-.4Z" style="fill: #eb7c2a; stroke-width: 0px;"/>
    <path d="M381.73,383.24l-83.79-97.42-83.79,97.82h30.87c4.41,0,8.02,3.61,8.02,8.02v93.01s89.8,0,89.8,0v-93.01c0-4.41,3.61-8.02,8.02-8.02h30.87s0-.4,0-.4Z" style="fill: #fff; stroke-width: 0px;"/>
  </g>
</svg>