<?xml version="1.0" encoding="UTF-8"?>
<svg id="a" xmlns="http://www.w3.org/2000/svg" viewBox="0 0 19.25 19.25">
  <path 
    d="M9.62.12C4.39.12.12,4.39.12,9.62s4.26,9.5,9.5,9.5,9.5-4.26,9.5-9.5S14.86.12,9.62.12Z" 
    fill="#f0fdea"
    stroke-width="0px"
  />
  <path 
    d="M9.62.12C4.39.12.12,4.39.12,9.62s4.26,9.5,9.5,9.5,9.5-4.26,9.5-9.5S14.86.12,9.62.12ZM9.62,18.89C4.52,18.89.36,14.73.36,9.62S4.52.36,9.62.36s9.26,4.15,9.26,9.26-4.16,9.26-9.26,9.26Z" 
    fill="#eb2e2a"
    stroke="#D1D7DF" 
    stroke-miterlimit="10" 
    stroke-width="0.25px"
  />
  <path
      d="M12.6437,6.3523l-4.1295,4.6806-1.7725-1.9369c-.4929-.5386-1.3317-.5753-1.8708-.0826-.2607.2385-.4131.5646-.4289.9181-.0155.3531.1072.6913.3459.9525l2.7676,3.0235c.2503.2733.6064.4301.9889.4301.3753-.0037.7328-.167.981-.4482l5.1042-5.7857c.4827-.547.4303-1.3853-.1169-1.8683-.547-.483-1.3853-.431-1.869.1169ZM14.4514,7.9468l-5.1042,5.7857c-.2037.2306-.4971.3647-.8149.3674-.3041,0-.5962-.1285-.8014-.3531l-2.7676-3.0235c-.196-.2139-.2967-.4918-.2839-.7817.013-.29.138-.5572.3521-.753.2081-.1907.4709-.2849.7332-.2849.2944,0,.5878.1188.8017.3526l1.8618,2.0344c.0225.0246.0543.0385.0877.0385.0313-.0009.0666-.0144.0891-.0404l4.2169-4.7799c.3967-.4486,1.0844-.4918,1.5335-.0956s.4922,1.0842.096,1.5333Z"
      fill="#6b6b49"
      strokeWidth=".25px"
      stroke="#6b6b49"
      strokeMiterlimit="10"
  />
  <path
      d="M14.4514,7.9468l-5.1042,5.7857c-.2037.2306-.4971.3647-.8149.3674-.3041,0-.5962-.1285-.8014-.3531l-2.7676-3.0235c-.196-.2139-.2967-.4918-.2839-.7817.013-.29.138-.5572.3521-.753.2081-.1907.4709-.2849.7332-.2849.2944,0,.5878.1188.8017.3526l1.8618,2.0344c.0225.0246.0543.0385.0877.0385.0313-.0009.0666-.0144.0891-.0404l4.2169-4.7799c.3967-.4486,1.0844-.4918,1.5335-.0956s.4922,1.0842.096,1.5333Z"
      fill="#c2f7aa"
      strokeWidth=".25px"
      stroke="#c2f7aa"
      strokeMiterlimit="10"
  />
</svg>