<?xml version="1.0" encoding="UTF-8"?>
<svg id="a" xmlns="http://www.w3.org/2000/svg" viewBox="0 0 19.25 19.25">
  <path 
    d="M9.62.12C4.39.12.12,4.39.12,9.62s4.26,9.5,9.5,9.5,9.5-4.26,9.5-9.5S14.86.12,9.62.12Z" style="fill: #fdeaea; stroke-width: 0px;"/>
  <path d="M9.62.12C4.39.12.12,4.39.12,9.62s4.26,9.5,9.5,9.5,9.5-4.26,9.5-9.5S14.86.12,9.62.12ZM9.62,18.89C4.52,18.89.37,14.73.37,9.62S4.52.37,9.62.37s9.26,4.15,9.26,9.26-4.16,9.26-9.26,9.26h0Z" style="fill: #eb2e2a; stroke: #d1d7df; stroke-miterlimit: 10; stroke-width: .25px;"/>
  <path d="M5.51,15.24c-.45,0-.72-.18-.98-.45-.54-.54-.54-1.43,0-1.97L12.67,4.68c.54-.54,1.43-.54,1.97,0s.54,1.43,0,1.97L6.4,14.88c-.18.27-.54.45-.98.45l.09-.09Z" style="fill: #ef5855; stroke: #eb2e2a; stroke-width: .27px;"/>
  <path d="M13.65,15.24c-.45,0-.72-.18-.98-.45L4.52,6.65c-.54-.54-.54-1.43,0-1.97s1.43-.54,1.97,0l8.23,8.23c.54.54.54,1.43,0,1.97s-.54.45-.98.45h0l-.09-.09Z" style="fill: #ef5855; stroke: #eb2e2a; stroke-width: .27px;"/>
</svg>