<svg viewBox="0 0 512 512" xmlns="http://www.w3.org/2000/svg"><path d="M466 416q0-9 9.5-9t9.5 9q0 26-19 45t-45 19q-37 0-55-31-19 31-55 31t-55-31q-19 31-55 31t-55-31q-18 31-55 31-26 0-45-19t-19-45q0-9 9.5-9t9.5 9q0 19 13.5 32.5t32 13.5q18.5 0 32-13.5T137 416q0-9 9-9t9 9q0 19 13.5 32.5T201 462q19 0 32.5-13.5T247 416q0-9 9-9t9 9q0 19 13.5 32.5T311 462q19 0 32.5-13.5T357 416q0-9 9-9t9 9q0 19 13.5 32.5t32 13.5q18.5 0 32-13.5T466 416zM40 389q-6 0-8-5Q0 322 0 251q0-9 9-9h28V133q0-10 9-10h36V32h19v91h36q9 0 9 10v109h101v-45q0-10 9-10h9v-45q0-9 9-9h110q9 0 9 9v45h46q9 0 9 10v45h55q9 0 9 9 0 71-32 133-2 5-8 5H40zm390-183h-73v36h73v-36zm-147-55v36h92v-36h-92zm-18 55v36h73v-36h-73zM55 142v100h73V142H55zm-9 119H18q2 58 27 109h422q25-51 27-109H46zm27-83v-18h37v18H73zm0 28v-19h37v19H73z"/></svg>