<svg viewBox="0 0 512 512" xmlns="http://www.w3.org/2000/svg"><path d="M503 257q9 0 9 9v23q0 15-24 35.5t-44.5 32Q423 368 402 378q-2 1-3 1L61 396q-6 0-8-5L1 270q-2-5 .5-9t7.5-4h86v-86q0-4 3-6.5t7-2.5l45 5 7-67q0-5 4-7t8 0l40 22q3 1 4 4l26 57 109 12q3 0 6 3l59 66h90zm-199-56v56h85l-46-52-39-4zm-132-86l-5 54 52 5-20-45-27-14zm-59 65v77h173v-58l-173-19zm382 109v-14H22l44 104 330-17q38-19 68.5-40.5T495 289zm-44 105q9 0 9 8.5t-9 8.5H334q-9 0-9-8.5t9-8.5h117zm-316 9q9 0 9 8.5t-9 8.5H17q-8 0-8-8.5t8-8.5h118z"/></svg>