<svg viewBox="0 0 512 512" xmlns="http://www.w3.org/2000/svg"><path d="M348 116q8 0 8 8t-8 8H164q-8 0-8-8t8-8h184zM78 406L56 251q-1-6 5-9l56-25 7-107q1-11 9.5-19t19.5-8h52V17q0-5 4-7 19-10 47-10t47 10q4 2 4 7v66h52q11 0 19.5 8t9.5 19l7 107 56 25q6 3 5 9l-22 155q-1 8-9 7t-7-9l21-149-55-25h-1l-119-52v228q0 8-8 8t-8-8V178L73 255l21 149q1 8-7 9h-1q-7 0-8-7zM221 22v61h70V22q-16-6-35-6t-35 6zm-81 89l-6 99 119-52h1l1-.5q1-.5 2 0l1 .5h1l119 52-6-99q-1-4-5-8t-8-4H153q-5 0-8.5 4t-4.5 8zM8 447q-8 0-8-8.5t8-8.5q22 0 35-17 2-4 6.5-4t6.5 4q13 17 35 17t35-17q2-4 6-4t7 4q13 17 34.5 17t34.5-17q3-4 7-4t6 4q13 17 35 17t35-17q2-4 6-4t7 4q13 17 34.5 17t34.5-17q3-4 7-4t6 4q14 17 35.5 17t34.5-17q2-4 6.5-4t6.5 4q13 17 35 17 8 0 8 8.5t-8 8.5q-24 0-41-17-18 17-42 17t-41-17q-17 17-41.5 17T297 430q-17 17-41 17t-41-17q-18 17-42 17t-41-17q-17 17-41 17t-42-17q-17 17-41 17zm496 49q8 0 8 8t-8 8q-24 0-41-17-18 17-42 17t-41-17q-17 17-41.5 17T297 495q-17 17-41 17t-41-17q-18 17-42 17t-41-17q-17 17-41 17t-42-17q-17 17-41 17-8 0-8-8t8-8q22 0 35-18 2-3 6.5-3t6.5 3q13 18 35 18t35-18q2-3 6-3t7 3q13 18 34.5 18t34.5-18q3-3 7-3t6 3q13 18 35 18t35-18q2-3 6-3t7 3q13 18 34.5 18t34.5-18q3-3 7-3t6 3q14 18 35.5 18t34.5-18q2-3 6.5-3t6.5 3q13 18 35 18z"/></svg>