<svg viewBox="0 0 512 512" xmlns="http://www.w3.org/2000/svg"><path d="M512 281l-75 115q16 6 39 18l-10 19q-72-38-112-28-4 1-13 4.5t-19 8l-10 4.5q-33 14-71.5 13.5t-71.5-14Q136 408 131 407q-13-2-31 3t-31 11.5Q56 428 42.5 436T28 444l-9-19 15.5-9Q50 407 64 401L0 271l70-21 53-180h57V40q0-15 11.5-25T219 5h57q16 0 27.5 10T315 40v30h57l55 183 85 28zM201 40v30h93V40q0-6-5.5-10T276 26h-57q-7 0-12.5 4T201 40zm-62 52L94 242l154-48 154 51-46-153H139zm-4 294q7 1 42 16 28 12 60 12V220L30 284l53 109q30-10 52-7zm214-2q31-8 68 4l62-96-221-72v193q24-2 45-11 44-18 46-18zm0 63q48-12 127 30l-10 19q-72-38-112-29l-42 18q-33 13-71.5 13T169 484.5Q136 471 131 470q-13-2-31 2.5T69 484q-13 7-26.5 14.5T28 507l-9-20q1 0 15.5-8T63 464q14-7 35-12t37-3q7 1 42 16 63 26 126 0 44-18 46-18zm-54-171l13-17 32 23-13 17-32-23zm-105-17l13 17-32 23-13-17 32-23zm-5-122v-21h46v21h-46zm94 0v-21h46v21h-46z"/></svg>