<svg viewBox="0 0 512 512" xmlns="http://www.w3.org/2000/svg"><path d="M503 347q6 0 8.5 6t-2.5 10l-122 95q-2 2-5 2H130q-3 0-5-2L3 363q-5-4-2.5-10t8.5-6h17V243q0-9 9-9h26v-69q0-9 8-9h44V61q0-9 8-9h96q9 0 9 9v95h217q8 0 8 9v69h26q9 0 9 9v104h17zM130 69v87h78V69h-78zm-9 105H78v60h356v-60H121zm-52 78H43v95h426v-95H69zm310 191l99-79H34l99 79h246zM148 104V87h43v17h-43zM61 286v-17h34v17H61zm104 0v-17h35v17h-35zm104 0v-17h35v17h-35zm-156 0v-17h35v17h-35zm104 0v-17h35v17h-35zm104 0v-17h35v17h-35zm52 0v-17h35v17h-35zM87 330v-18h34v18H87zm104 0v-18h35v18h-35zm104 0v-18h35v18h-35zm-156 0v-18h35v18h-35zm104 0v-18h35v18h-35zm104 0v-18h35v18h-35zm52 0v-18h35v18h-35zM95 208v-17h157v17H95zm165 0v-17h157v17H260z"/></svg>