<svg viewBox="0 0 512 512" xmlns="http://www.w3.org/2000/svg"><path d="M457 284q8 3 5 11l-71 179q-2 4-6 5l-127 33h-4l-127-33q-4-1-6-5L50 295q-3-8 5-11l55-22 11-106h-9q-9 0-9-8.5t9-8.5h102V16q0-6 5-8 37-16 74 0 5 2 5 8v123h102q9 0 9 8.5t-9 8.5h-9l11 106 55 22zM231 22v18q25-7 50 0V22q-25-9-50 0zm0 36v81h50V58q-25-9-50 0zm16 434v-80l-125 17 14 35 111 28zm0-97V225L69 297l46 115 132-17zm6-190q3-2 6 0l125 49-10-98H138l-10 98 125-49zm123 259l14-35-125-17v80l111-28zm21-52l46-115-178-72v170l132 17zm-44-240q9 0 9 9t-9 9h-12q-9 0-9-9t9-9h12zm-1 32q8 0 8 8.5t-8 8.5h-19q-9 0-9-8.5t9-8.5h19zm-175 0q9 0 9 8.5t-9 8.5h-18q-9 0-9-8.5t9-8.5h18zm135-30q4-3 9-.5t4.5 8q-.5 5.5-6 7.5t-9.5-2q-1-1-2-3-2-6 4-10zm-21-2q9 0 9 9t-9 9H159q-9 0-9-9t9-9h132zm27 167q-6 9-15.5 9t-15.5-9q-6-9-6-22.5t6-22q6-8.5 15.5-8.5t15.5 8.5q6 8.5 6 22t-6 22.5zm-16-36q-4 4-4 14t4 14q5-4 5-14t-5-14zm-77 36q-6 9-15.5 9t-15.5-9q-6-9-6-22.5t6-22q6-8.5 15.5-8.5t15.5 8.5q6 8.5 6 22t-6 22.5zm-15-36q-5 4-5 14t5 14q4-4 4-14t-4-14z"/></svg>