<svg viewBox="0 0 512 512" xmlns="http://www.w3.org/2000/svg"><path d="M421 282q8 3 5 11t-11 5l-151-58-159 58q-1 1-3 1-6 0-8-6-3-8 5-11l166-61 156 61zM316 162q-9 0-9-8.5t9-8.5h17q8 0 8 8.5t-8 8.5h-17zm-43 0q-8 0-8-8.5t8-8.5h17q9 0 9 8.5t-9 8.5h-17zm85 0q-8 0-8-8.5t8-8.5h17q9 0 9 8.5t-9 8.5h-17zm-111-17q9 0 9 8.5t-9 8.5h-17q-8 0-8-8.5t8-8.5h17zm-42 0q8 0 8 8.5t-8 8.5h-17q-9 0-9-8.5t9-8.5h17zm-43 0q9 0 9 8.5t-9 8.5h-17q-8 0-8-8.5t8-8.5h17zm324 282q9 0 9 8.5t-9 8.5H26q-9 0-9-8.5t9-8.5h99q-24-25-40-51t-22.5-44Q56 314 53 296.5T50.5 273q.5-6 .5-10l1-5 42-15V135q0-10 7-17t17-7h95V27q0-11 8-19t20-8h47q12 0 20 8t8 19v84h95q10 0 17 7t7 17v108l42 15 1 5q0 4 .5 10t-2.5 23.5q-3 17.5-9.5 35.5T444 376q-16 26-40 51h82zM230 27v84h69V27q0-4-3-7t-8-3h-47q-5 0-8 3t-3 7zM111 135v101l148-55q6-2 11 0l148 55V135q0-7-7-7H118q-7 0-7 7zm95 292h117l-14-101q-1-2-2-2h-85q-1 0-1 2l-15 101zm134 0h41q34-35 54-71t23.5-53.5Q462 285 461 271l-196-74-197 74q0 14 3 31.5t23 54q20 36.5 55 70.5h40l15-104q1-7 6-11.5t12-4.5h85q7 0 12 4.5t6 11.5l15 104zm53 34q8 0 8 8.5t-8 8.5H145q-8 0-8-8.5t8-8.5h248zm-69 34q9 0 9 8.5t-9 8.5H205q-9 0-9-8.5t9-8.5h119z"/></svg>