<svg viewBox="0 0 512 512" xmlns="http://www.w3.org/2000/svg"><path d="M152 328v-16h31v16h-31zm24-144v-14h56v14h-56zm103 0v-14h57v14h-57zm-142-64v-15h239v15H137zm86-56v30h-16V18h97v76h-16V32h-65v16h50v16h-50zm159 368q17-1 35 .5t31 4q13 2.5 25 5.5t19.5 5.5L506 452l6 2v17q-5-2-13.5-5t-35.5-9q-27-6-55-8t-68 3.5q-40 5.5-78 20.5-56 21-118 21-88 0-144-29v-18q8 5 23 11t58 14.5q43 8.5 85 5.5-48-40-48-103V275l25-13v-46h-22v-16h22v-72h225v72h22v16h-22v46l27 13v100q0 30-13 57-10 0-20 1 16-27 16-58v-89l-113-59-9-4 9 4v227q48-17 97-21 10-1 20-1zm-30-288H159v110l97-50 96 49V144zM135 375q0 31 15 57.5t41 42.5q29-5 57-14V227l-113 59v89z"/></svg>