<svg viewBox="0 0 512 512" xmlns="http://www.w3.org/2000/svg"><path d="M504 243q4 0 6.5 4t.5 8l-60 141q-2 6-8 6H22q-7 0-8-8L0 281q0-4 2.5-6.5T8 272h34l18-59q2-6 8-6h21v-88q0-9 8-9h42q8 0 8 9v88h15v-88q0-9 9-9h41q9 0 9 9v88h15v-88q0-9 8-9h42q8 0 8 9v88h87q8 0 8 8.5t-8 8.5h-24l11 47q8-1 13-6.5t5-12.5q0-9 8-9h110zM252 127v12h26v-12h-26zm0 29v51h26v-51h-26zm-73-29v12h25v-12h-25zm25 29h-25v51h25v-51zm-98-29v12h25v-12h-25zm0 29v51h25v-51h-25zm-32 68l-14 48h291l-11-48H74zm364 161l11-27H26l3 27h409zm18-44l35-81h-90q-2 12-12 20t-23 8H18l6 53h432zM331 239q8 0 8 8.5t-8 8.5h-21q-8 0-8-8.5t8-8.5h21zm-35 6q2 6-3 10-6 4-11-1-7-8 1-13 9-6 13 4zm-31-6q8 0 8 8.5t-8 8.5H94q-9 0-9-8.5t9-8.5h171zm172 86.5q-7 6.5-16.5 6.5t-16-6.5q-6.5-6.5-6.5-16t6.5-16.5q6.5-7 16-7t16.5 7q7 7 7 16.5t-7 16zM427 309q0-6-6.5-6t-6.5 6q0 6 6.5 6t6.5-6z"/></svg>