<svg viewBox="0 0 512 512" xmlns="http://www.w3.org/2000/svg"><path d="M409 439H55q-3 0-5-1.5t-2-4.5q1-39-9-70-11-31-38-68-2-3-.5-6.5T6 285h35l7-38q2-9 9-15.5t17-6.5h25l12-48q2-5 6-5h83v-14q0-6 6-6h42l5-74q1-5 7-5h30q5 0 6 5l5 102h23q6 0 6 6v39h29q4 0 5 3l42 58h100q4 0 5.5 4t-1.5 7q-39 29-61.5 63.5T415 435q-1 4-6 4zM61 427h344q12-41 33-73 18-28 50-56H18q23 36 32 61 10 28 11 68zm-7-141h337l-6-8H104q-6 0-6-6v-20q0-6 6-6h258l-6-8H74q-12 0-14 11l-6 37zm56-20h266l-5-8H110v8zm137-41h71v-33h-71v33zm-135 0h122v-39q0-6 7-6h47l-4-95h-19l-5 74q0 5-6 5h-41v15q0 6-7 6h-84l-10 40zm270 159q0 6-6.5 6t-6.5-6v-10q0-6 6.5-6t6.5 6v10zm-41 0q0 6-6.5 6t-6.5-6v-10q0-6 6.5-6t6.5 6v10zm-41 0q0 6-6.5 6t-6.5-6v-10q0-6 6.5-6t6.5 6v10zm-41 0q0 6-6 6t-6-6v-10q0-6 6-6t6 6v10zm-41 0q0 6-6 6t-6-6v-10q0-6 6-6t6 6v10zm-41 0q0 6-6 6t-6-6v-10q0-6 6-6t6 6v10zm-41 0q0 6-6 6t-6-6v-10q0-6 6-6t6 6v10zm-40 0q0 6-6.5 6t-6.5-6v-10q0-6 6.5-6t6.5 6v10zm317-48q0 6-6 6t-6-6v-10q0-6 6-6t6 6v10zm-41 0q0 6-6 6t-6-6v-10q0-6 6-6t6 6v10zm-41 0q0 6-6 6t-6-6v-10q0-6 6-6t6 6v10zm-40 0q0 6-6.5 6t-6.5-6v-10q0-6 6.5-6t6.5 6v10zm-41 0q0 6-6.5 6t-6.5-6v-10q0-6 6.5-6t6.5 6v10zm-41 0q0 6-6 6t-6-6v-10q0-6 6-6t6 6v10zm-41 0q0 6-6 6t-6-6v-10q0-6 6-6t6 6v10zm-41 0q0 6-6 6t-6-6v-10q0-6 6-6t6 6v10zm-41 0q0 6-6 6t-6-6v-10q0-6 6-6t6 6v10z"/></svg>