<svg viewBox="0 0 512 512" xmlns="http://www.w3.org/2000/svg"><path d="M444 211q10 0 10 10 0 91-30 157-25 53-67 88-50 40-99 46h-2q-4 0-15.5-2.5t-37-14Q178 484 155 466q-42-35-67-88-30-66-30-157 0-10 10-10h40v-95q0-10 10-10h91V10q0-10 10-10h74q10 0 10 10v96h91q10 0 10 10v95h40zM282 20h-52v25h52V20zm-52 45v41h52V65h-52zm-102 61v85h256v-85H128zm306 106H78q3 147 89 218 43 34 89 42 46-8 89-42 86-71 89-218zM266 454q0 11-10 11t-10-11V327q0-10 10-10t10 10v127zm0-167q0 10-10 10t-10-10v-23q0-10 10-10t10 10v23zm77-129q11 0 11 10.5T343 179H169q-11 0-11-10.5t11-10.5h174zm30 157q-8 8-19 8t-19.5-8q-8.5-8-8.5-19.5t8.5-19.5q8.5-8 19.5-8t19 8q8 8 8 19.5t-8 19.5zm-12-19q0-7-7-7t-7 7q0 7 7 7t7-7zm-183.5 19q-8.5 8-19.5 8t-19-8q-8-8-8-19.5t8-19.5q8-8 19-8t19.5 8q8.5 8 8.5 19.5t-8.5 19.5zM165 296q0-7-7-7t-7 7q0 7 7 7t7-7z"/></svg>