<svg viewBox="0 0 512 512" xmlns="http://www.w3.org/2000/svg"><path d="M134 82q-8 0-8-8.5t8-8.5h244q8 0 8 8.5t-8 8.5H134zm-3 32q-8 0-8-8t8-8h250q8 0 8 8t-8 8H131zm-2 33q-8 0-8-8t8-8h254q8 0 8 8t-8 8H129zm256 16q9 0 9 8.5t-9 8.5H127q-9 0-9-8.5t9-8.5h258zm-137 74q0-8 8-8t8 8v169q0 8-8 8t-8-8V237zM87 407L56 240q-2-8 6-9l20-4L95 40q1-7 8-7h58V8q0-8 8-8t8 8v25h18l10-27q1-6 7-6h88q6 0 7 6l10 27h18V8q0-8 8-8t8 8v25h58q7 0 8 7l13 187 20 4q8 1 6 9l-31 167q-1 8-9 6.5t-7-9.5l30-159-18-3-135-27q-30-6-60 0L73 245l30 159q1 8-7 9h-1q-7 0-8-6zM218 16l-5 17h86l-5-17h-76zM111 49L98 224l124-25q34-7 68 0l124 25-13-175H111zM8 447q-8 0-8-8.5t8-8.5q22 0 35-17 2-4 6.5-4t6.5 4q13 17 35 17t35-17q2-4 6-4t7 4q13 17 34.5 17t34.5-17q3-4 7-4t6 4q13 17 35 17t35-17q2-4 6-4t7 4q13 17 34.5 17t34.5-17q3-4 7-4t6 4q14 17 35.5 17t34.5-17q2-4 6.5-4t6.5 4q13 17 35 17 8 0 8 8.5t-8 8.5q-24 0-41-17-18 17-42 17t-41-17q-17 17-41.5 17T297 430q-17 17-41 17t-41-17q-18 17-42 17t-41-17q-17 17-41 17t-42-17q-17 17-41 17zm496 49q8 0 8 8t-8 8q-24 0-41-17-18 17-42 17t-41-17q-17 17-41.5 17T297 495q-17 17-41 17t-41-17q-18 17-42 17t-41-17q-17 17-41 17t-42-17q-17 17-41 17-8 0-8-8t8-8q22 0 35-18 2-3 6.5-3t6.5 3q13 18 35 18t35-18q2-3 6-3t7 3q13 18 34.5 18t34.5-18q3-3 7-3t6 3q13 18 35 18t35-18q2-3 6-3t7 3q13 18 34.5 18t34.5-18q3-3 7-3t6 3q14 18 35.5 18t34.5-18q2-3 6.5-3t6.5 3q13 18 35 18z"/></svg>