<svg viewBox="0 0 512 512" xmlns="http://www.w3.org/2000/svg"><path d="M150 330l98-25v-19h-96q-9 0-9-8t9-8h96V8q0-8 8-8t8 8v20q39 28 61 70.5t22 90.5v81h13q9 0 9 8t-9 8h-71q-8 0-8-8t8-8h41v-81q0-41-17-77.5T264 49v256l98 25q4 1 5.5 4t.5 6l-17 67q-2 8-10 6t-6-10l15-59-86-22v84q0 8-8 8t-8-8v-84l-86 22 15 59q2 8-6 10h-2q-7 0-8-6l-17-67q-1-3 .5-6t5.5-4zM8 447q-8 0-8-8.5t8-8.5q22 0 35-17 2-4 6.5-4t6.5 4q13 17 35 17t35-17q2-4 6-4t7 4q13 17 34.5 17t34.5-17q3-4 7-4t6 4q13 17 35 17t35-17q2-4 6-4t7 4q13 17 34.5 17t34.5-17q3-4 7-4t6 4q14 17 35.5 17t34.5-17q2-4 6.5-4t6.5 4q13 17 35 17 8 0 8 8.5t-8 8.5q-24 0-41-17-18 17-42 17t-41-17q-17 17-41.5 17T297 430q-17 17-41 17t-41-17q-18 17-42 17t-41-17q-17 17-41 17t-42-17q-17 17-41 17zm496 49q8 0 8 8t-8 8q-24 0-41-17-18 17-42 17t-41-17q-17 17-41.5 17T297 495q-17 17-41 17t-41-17q-18 17-42 17t-41-17q-17 17-41 17t-42-17q-17 17-41 17-8 0-8-8t8-8q22 0 35-18 2-3 6.5-3t6.5 3q13 18 35 18t35-18q2-3 6-3t7 3q13 18 34.5 18t34.5-18q3-3 7-3t6 3q13 18 35 18t35-18q2-3 6-3t7 3q13 18 34.5 18t34.5-18q3-3 7-3t6 3q14 18 35.5 18t34.5-18q2-3 6.5-3t6.5 3q13 18 35 18z"/></svg>