<svg viewBox="0 0 512.0011 512" xmlns="http://www.w3.org/2000/svg"><path d="M505 229q4 0 6 3.5t0 6.5l-74 155q-15 31-49 31H75q-18 0-33-11.5T22 385L0 301q-1-3 1.5-6t5.5-3h111v-95q0-10 7-16.5t17-6.5h79v-17h-32q-6 0-10.5-4.5T174 142v-16q0-7 4.5-11.5T189 110h32V94q0-7 7.5-7t7.5 7v16h32q6 0 10.5 4.5T283 126v16q0 6-4.5 10.5T268 157h-32v17h48q13 0 23 7.5t14 19.5l14 47q26-19 59-19h111zm-317-87h80v-16-1h-79q-1 0-1 1v16zm133 111l-10-33h-52v8q0 10 7.5 17.5T284 253h37zm-108-33h-32v33h32v-33zm-47 33v-33h-33v33h33zm-33 14v25h155l25-25h-29q-16 0-27.5-11.5T245 228v-8q0-6 4.5-10.5T260 205h47q-6-17-23-17H142q-9 0-9 9v8h80q6 0 10.5 4.5T228 220v32q0 6-4.5 10.5T213 267h-80zm291 121l69-144h-99q-36 0-62 25l-35 36q-2 2-5 2H17l20 74q3 13 14 21t24 8h313q25 0 36-22zm-314.5-50q6.5-7 16-7t16.5 7q7 7 7 16.5t-7 16.5q-7 7-16.5 7t-16-7q-6.5-7-6.5-16.5t6.5-16.5zm7.5 16.5q0 8.5 8.5 8.5t8.5-8.5q0-8.5-8.5-8.5t-8.5 8.5zM251.5 338q6.5-7 16-7t16.5 7q7 7 7 16.5t-7 16.5q-7 7-16.5 7t-16-7q-6.5-7-6.5-16.5t6.5-16.5zm7.5 16.5q0 8.5 8.5 8.5t8.5-8.5q0-8.5-8.5-8.5t-8.5 8.5zM180.5 338q6.5-7 16-7t16.5 7q7 7 7 16.5t-7 16.5q-7 7-16.5 7t-16-7q-6.5-7-6.5-16.5t6.5-16.5zm7.5 16.5q0 8.5 8.5 8.5t8.5-8.5q0-8.5-8.5-8.5t-8.5 8.5zM399 384q-7-3-3-10l31-66q3-6 9.5-3t3.5 10l-31 65q-2 5-7 5-1 0-3-1zm45-94q-7-3-4-10l8-15q3-7 9.5-4t3.5 10l-7 16q-2 4-7 4-2 0-3-1z"/></svg>