<svg viewBox="0 0 512.0017 512" xmlns="http://www.w3.org/2000/svg"><path d="M17.002 396l-17-193q-1-8 7-8l19-2v-42q0-12 8.5-21.5t20.5-10.5l17-2V41q0-17 12-29t29-12h286q17 0 29 12t12 29v76l17 2q12 1 20.5 10.5t8.5 21.5v42l19 2q8 0 7 8l-17 193q-1 7-8 7h-1q-8 0-7-9l10-119-201-22q-8 0-7.5-8.5t9.5-7.5l201 21 4-48-18-2-142-15-71-7v220q0 8-8 8t-8-8V251l-225 24 10 119q1 9-7 9.5t-9-7.5zm327-218l54 5v-54l-41-4q-6-1-9.5 2.5t-3.5 8.5v42zm125-27q0-6-4-10.5t-10-5.5l-40-4v54l54 6v-40zm-356-135q-18 0-23 17h332q-5-17-23-17h-286zm-25 33v66l17-1 49-5q12-2 21 6.5t9 20.5v40l71-8h2l71 8v-40q0-12 9-20.5t21-6.5l49 5 17 1V49h-160v95q0 8-8 8t-8-8V49h-160zm26 134l54-5v-42q0-5-3.5-8.5t-9.5-2.5l-41 4v54zm-71-32v40l54-6v-54l-40 4q-6 1-10 5.5t-4 10.5zm-8 57l-18 2 4 48 227-23v-49l-71 7-142 15zm469 222q8 0 8 8.5t-8 8.5q-24 0-41-17-18 17-42 17t-41-17q-17 17-41.5 17t-41.5-17q-17 17-41 17t-41-17q-18 17-42 17t-41-17q-17 17-41 17t-42-17q-17 17-41 17-8 0-8-8.5t8-8.5q22 0 35-17 2-4 6.5-4t6.5 4q13 17 35 17t35-17q2-4 6-4t7 4q13 17 34.5 17t34.5-17q3-4 7-4t6 4q13 17 35 17t35-17q2-4 6-4t7 4q13 17 34.5 17t34.5-17q3-4 7-4t6 4q14 17 35.5 17t34.5-17q2-4 6.5-4t6.5 4q13 17 35 17zm0 66q8 0 8 8t-8 8q-24 0-41-17-18 17-42 17t-41-17q-17 17-41.5 17t-41.5-17q-17 17-41 17t-41-17q-18 17-42 17t-41-17q-17 17-41 17t-42-17q-17 17-41 17-8 0-8-8t8-8q22 0 35-18 2-3 6.5-3t6.5 3q13 18 35 18t35-18q2-3 6-3t7 3q13 18 34.5 18t34.5-18q3-3 7-3t6 3q13 18 35 18t35-18q2-3 6-3t7 3q13 18 34.5 18t34.5-18q3-3 7-3t6 3q14 18 35.5 18t34.5-18q2-3 6.5-3t6.5 3q13 18 35 18z"/></svg>