<svg viewBox="0 0 512 512" xmlns="http://www.w3.org/2000/svg"><path d="M415 480q-6 14 5 20 2 2 .5 5t-4.5 2q-20-5-14-24-19 6-33 26-5 6-10 1-20-18-37-28-6 15-27 22-3 4-7 2l-1 1q-2 0-2-2-1-2-1-4-1-26-25-40-8 16-23.5 20.5t-26.5-4q-11-8.5-7-25.5-37 14-50 47-3 7-9 3-17-9-32-13 3 6 5 14 0 2-1.5 3t-2.5-1q-8-11-18-21-2-2-.5-6t5.5-4q21 3 44 15l.5-.5.5-.5q-31-46-59-122v-2q-2-6 4-8 31-10 97-57 0-1 9.5-7.5t13-9q3.5-2.5 11.5-7t14.5-5.5q6.5-1 12.5 0 10 1 21.5 5.5t19 8.5q7.5 4 21 12t17.5 10q25 14 94 53 4-1 5 2 2 7 2.5 10t-2.5 11q-3 8-4.5 11.5T415 404q-4 7-5 9-29 57-35 71 17-15 37-12 3 0 4 2.5t-1 5.5zm-52 16q-1-11 2.5-22t13.5-29.5q10-18.5 11-20.5 11-23 24-55-16-7-44-23t-40-22q-2-1-25-14.5T265 289q-17-7-27-3-22 8-67 40.5T98 366q33 75 52 112 22-32 60-42 5-1 7 2.5t1 7.5q-10 23 5 24t24-15q1-2 2-5 3-8 10-4 34 19 36 51 16-11 18-26 1-7 9-4 21 11 41 29zm0-280h17.5q2.5 0 6 1.5t5.5 4.5q2 3 2 9 0 4-2 8t-5.5 8.5Q383 252 382 254q-15 29-18 46-1 5-6.5 4.5T352 299q-2-14 8.5-40.5T384 231q-60 1-103 2-21 1-61 1t-58 1q-20 0-22 8t5 26q6 24 6 41 0 2-2.5 2.5T145 311q-19-58-24-79-1-7 5-8 17-3 35.5-3.5t41.5-1q23-.5 35-.5 88-4 125-3zm-77-26q1 9 2 14 1 4-2.5 6.5t-6.5-.5q-5-6-5-17h-13q-14 1-28 1 3 12 2 18 0 1-1.5 2t-2.5-1q-7-7-11-24.5t5-24.5q6-3 30-5 20-2 27-1 4 1 4 5v18h1q3 1 3.5 4t-2.5 4l-2 1zm-54-4q9-2 29-4 2 0 6.5-1t6.5-1q0-1 .5-5t.5-6q-22-1-42 5h-2q-1 0-1 1t1 2q0 4 1 9zm51-78q7 7 5.5 15.5T279 138q-3 2-6-1t-1-6q8-13 0-16-10-4-20 1-5 3-7.5-1t.5-8q13-16 0-28-8-7-18-3-2 9-9 15-3 2-7 0t-2-6q12-35-8-56-11-11-24.5-14.5T149 19q-17 12-18 40-2 26 21 28 2-2 4.5.5T158 93q-9 18-6 25t13 12q18 8 28-1 0-4 3-7 2-2 4.5-1t2.5 4q0 12 8 14 16 4 18-6 1-4 5.5-3.5t3.5 4.5q0 6 3.5 8.5T252 145q2 1 2.5 3t-1.5 3q-15 5-22-6-11 8-24 3-7-2-11-8-8 5-18.5 4.5T159 141q-14-7-18-20.5t4-24.5q-18 1-23.5-17.5t1-40.5Q129 16 143 8q18-11 37.5-6.5T213 22q18 22 16 45 13-4 23 5 13 12 9 29 14-1 22 7z"/></svg>