<svg viewBox="0 0 512 512" xmlns="http://www.w3.org/2000/svg"><path d="M460 272q8 2 8 10 0 67-87 184-3 4-8 4H80q-10 0-10-10t10-10h41Q45 344 45 282q0-8 8-10l42-12V131q0-10 10-10h113V52q0-10 10-10h57q10 0 10 10v69h113q10 0 10 10v129l42 12zM238 62v59h37V92h-14q-10 0-10-10t10-10h14V62h-37zm-123 79v112l139-40q3-1 5 0l139 40V141H115zm253 309q74-102 79-161l-190-56-191 56q5 59 80 161h101v-98q0-10 10-10t10 10v98h101zm-332 0q10 0 10 10t-10 10H10q-10 0-10-10t10-10h26zm410 0q10 0 10 10t-10 10h-19q-10 0-10-10t10-10h19zm56 0q10 0 10 10t-10 10h-12q-10 0-10-10t10-10h12zM247 269q0-10 10-10t10 10v35q0 10-10 10t-10-10v-35zm-102.5-99.5q3.5-3.5 8.5-3.5t8.5 3.5q3.5 3.5 3.5 8t-3.5 8Q158 189 153 189t-8.5-3.5q-3.5-3.5-3.5-8t3.5-8zm52 0q3.5-3.5 8.5-3.5t8.5 3.5q3.5 3.5 3.5 8t-3.5 8Q210 189 205 189t-8.5-3.5q-3.5-3.5-3.5-8t3.5-8zm119 16Q312 189 307 189t-8.5-3.5q-3.5-3.5-3.5-8t3.5-8q3.5-3.5 8.5-3.5t8.5 3.5q3.5 3.5 3.5 8t-3.5 8zm-51-16q3.5 3.5 3.5 8t-3.5 8Q261 189 256 189t-8.5-3.5q-3.5-3.5-3.5-8t3.5-8q3.5-3.5 8.5-3.5t8.5 3.5zm104 16Q365 189 360 189t-8.5-3.5q-3.5-3.5-3.5-8t3.5-8q3.5-3.5 8.5-3.5t8.5 3.5q3.5 3.5 3.5 8t-3.5 8zM309 299q-9-3-6-12.5t12-6.5l82 25q10 3 7 12-3 7-10 7h-3l-82-25z"/></svg>