<svg viewBox="0 0 512 512" xmlns="http://www.w3.org/2000/svg"><path d="M504 269q5 0 7 4.5t0 8.5q-34 56-91 88.5T298 403H40q-15 0-26-9T0 371v-93q0-9 8-9h24l65-70-15-81q0-3 2.5-6t5.5-3h69q7 0 8 6l16 71h128q13 0 26 16 0 1 1 1l33 66h133zM298 387q57 0 108-27t83-74H366l-.5-.5q-.5-.5-1.5-.5h-2v-1h-1v-1h-.5q-.5 0-.5-1-1 0-1-1l-21-42h-96q-8 0-8-8t8-8h87l-5-12q-8-9-13-9H178q-8 1-9-6l-16-71h-53l22 120q1 8-7 10h-1q-7 0-8-7l-6-29-46 50h278q8 0 8 8.5t-8 8.5H16v42h389q8 0 8 8t-8 8H16v24q5 19 24 19h258z"/></svg>