<svg viewBox="0 0 512.0011 512" xmlns="http://www.w3.org/2000/svg"><path d="M18 396L0 317q-1-4 1.5-7t6.5-3h70V74q0-6 5-8L253 1q3-2 6 0l170 65q5 2 5 8v233h70q4 0 6.5 3t1.5 7l-18 79q-2 6-8 6h-2q-8-2-6-10l16-69H18l16 69q2 8-6 10t-10-6zm288-89V156H206v151h100zM94 79v228h95V148q0-8 8-8h118q8 0 8 8v159h95V79L256 17 94 79zM8 447q-8 0-8-8.5t8-8.5q22 0 35-17 2-4 6.5-4t6.5 4q13 17 35 17t35-17q2-4 6-4t7 4q13 17 34.5 17t34.5-17q3-4 7-4t6 4q13 17 35 17t35-17q2-4 6-4t7 4q13 17 34.5 17t34.5-17q3-4 7-4t6 4q14 17 35.5 17t34.5-17q2-4 6.5-4t6.5 4q13 17 35 17 8 0 8 8.5t-8 8.5q-24 0-41-17-18 17-42 17t-41-17q-17 17-41.5 17T297 430q-17 17-41 17t-41-17q-18 17-42 17t-41-17q-17 17-41 17t-42-17q-17 17-41 17zm496 49q8 0 8 8t-8 8q-24 0-41-17-18 17-42 17t-41-17q-17 17-41.5 17T297 495q-17 17-41 17t-41-17q-18 17-42 17t-41-17q-17 17-41 17t-42-17q-17 17-41 17-8 0-8-8t8-8q22 0 35-18 2-3 6.5-3t6.5 3q13 18 35 18t35-18q2-3 6-3t7 3q13 18 34.5 18t34.5-18q3-3 7-3t6 3q13 18 35 18t35-18q2-3 6-3t7 3q13 18 34.5 18t34.5-18q3-3 7-3t6 3q14 18 35.5 18t34.5-18q2-3 6.5-3t6.5 3q13 18 35 18zM347 235q-8 0-8-8v-79q0-8 8-8h46q8 0 8 8t-8 8h-38v63h38q8 0 8 8t-8 8h-46zm-182-95q8 0 8 8v79q0 8-8 8h-46q-8 0-8-8t8-8h38v-63h-38q-8 0-8-8t8-8h46z"/></svg>