<?xml version="1.0" encoding="UTF-8"?><svg id="a" xmlns="http://www.w3.org/2000/svg" viewBox="0 0 511.1334 420.9971"><defs><style>.b{fill:#4d7796;}.b,.c,.d,.e,.f,.g,.h,.i,.j,.k{stroke-width:0px;}.c{fill:#2a2f33;}.d{fill:#fdfdfe;}.e{fill:#fdfefe;}.f{fill:#fbfcfc;}.g{fill:#fbfcfe;}.h{fill:#fefefe;}.i{fill:#eef3f7;}.j{fill:#fafbfc;}.k{fill:#fcfcfd;}</style></defs><path class="c" d="M222.9212,351.2708H3.4791c.6544-3.7565,1.2425-7.1632,1.8426-10.5677.4354-2.4699.9052-4.9338,1.3199-7.4072.127-.7574.1465-1.5362.1715-2.3066.0341-1.0502.0402-2.0417.6046-3.0481.4476-.7982.4413-1.8564.6115-2.8037.4437-2.469.8791-4.9396,1.3027-7.4121.062-.3618.0411-.7378.0684-1.3131H.3206c-.1372-.5268-.3109-.8839-.3115-1.2414-.0139-8.0149-.0096-16.0298-.0021-24.0448.0002-.188.0776-.376.1577-.7401.5806-.0794,1.221-.237,1.8629-.2428,2.9933-.0271,5.987-.0121,8.9806-.0122.9606,0,1.9212,0,2.8718,0,.6998-1.1315.7699-2.2965.9682-3.415.6398-3.6092,1.2422-7.2251,1.8885-10.8331.0987-.5509.3537-1.0739.5405-1.6216,2.852-.2248,5.6386.038,8.5865-.1774.158-5.2786.0553-10.3727.0735-15.4643.0186-5.2146.0041-10.4292.0041-15.6438v-15.4725c.6825-.1029,1.2235-.2544,1.7649-.2555,7.4356-.0158,14.8712-.0129,22.3069-.0064.474.0004.948.0678,1.4113.1031.691,1.0262.3846,2.1206.3864,3.1472.0234,13.4227.0137,26.8455.0192,40.2682.0004,1.0413.0529,2.0827.0785,3.0236.3369.177.5009.3384.6653.3388,9.6561.0211,19.3123.0305,28.9684.0296.2705,0,.541-.1231.9823-.2302.472-4.2756.9932-8.5573,2.3192-12.6958,1.3026-4.0654,3.0214-7.9193,5.2704-11.5473,2.3026-3.7145,5.0386-7.0726,8.2132-10.0663,3.1752-2.9942,6.6982-5.5188,10.5285-7.6168,3.745-2.0514,7.7101-3.5444,11.8399-4.5765,4.2315-1.0574,8.5455-1.5153,12.9101-1.4347,8.5642.1581,16.5877,2.3372,24.0172,6.5905,7.5222,4.3062,13.5304,10.1927,18.029,17.6127,4.4306,7.3077,6.707,15.2856,7.2196,23.7258,2.4366.3127,15.5258.3879,19.4198.1248.0905-.5005.239-1.0369.2733-1.5804.0486-.7695.0134-1.5443.0134-2.3168,0-31.0944-.0007-62.1889.0036-93.2833.0001-1.0393.0524-2.0786.0843-3.2646,1.9842-.2723,3.8067-.1054,5.616-.1344,1.9308-.0309,3.8626-.001,5.7939-.0087,1.818-.0073,3.6394.0424,5.6551-.0587-1.5984-19.4221-3.4203-38.601-5.0427-57.8188.3381-.4147.6078-.8105.9402-1.1436,4.9789-4.9899,9.9869-9.9512,14.9333-14.9731.9559-.9705,1.946-1.4086,3.3042-1.356,2.2128.0859,4.4313.0232,6.7893.0232.0966-.6332.2498-1.1755.2514-1.7184.0174-5.7939.07-11.5889-.0216-17.3814-.0318-2.0135-.3834-4.029-.6803-6.0301-1.4296-9.6364-2.9027-19.2664-4.3364-28.9022-1.2637-8.4932-2.4871-16.9924-3.7453-25.4864-.6784-4.58-1.3969-9.1541-2.0853-13.7327-.0842-.5597-.0937-1.1306-.1382-1.7006.3521-.1703.5897-.3604.8504-.4004,5.8168-.8928,11.6356-1.7732,17.456-2.6423.5625-.084,1.1382-.0795,1.899-.1283,1.3391,7.5787,2.3196,15.1163,3.5072,22.6194,1.1762,7.4312,2.291,14.8722,3.4134,22.3119,1.1362,7.5308,2.2486,15.0652,3.3868,22.7008,2.8627.6385,5.647.2835,8.4034.3478,2.6886.0627,5.386-.0858,8.0089.4314.1126.0868.2085.1317.2579.2069.0502.0765.0759.183.0763.2765.0268,6.5641.053,13.1282.0675,19.6923.001.4746-.0781.9503-.1379,1.4233-.0105.083-.1101.1546-.2817.3806-1.4845.2701-3.1172.0887-4.7357.1189-1.7376.0324-3.4764-.0088-5.2144.012-1.6175.0193-3.2444-.0959-5.0403.1091-.0404.7985-.102,1.4466-.1004,2.0945.0041,1.7137-.0583,3.4323.044,4.9386.2903.2531.352.3344.4338.3707.0848.0376.1886.0377.2847.0435.2888.0172.5778.0412.8668.0413,24.624.0019,49.2479.0017,74.0871.0017,5.7985,5.7419,11.4389,11.8062,17.1684,17.7406.1757,1.0667-.2068,1.9631-.4595,2.8827-3.2183,11.7138-6.4406,23.4265-9.6333,35.1472-.2754,1.0109-.4891,2.0766-.4928,3.1177-.0364,10.1394-.0228,20.2789-.0192,30.4184.0001.4629.0406.9258.0549,1.2311.2448.2209.3063.3049.3891.3432.0838.0388.1883.0364.2843.0449.192.0171.3842.0364.5767.042.2895.0084.5793.0071.869.0075,9.1733.0118,18.3467.0231,27.52.0372.0926.0001.1852.0372.5562.1166,2.193,4.0646,4.1602,8.4472,6.2795,12.7514,2.1301,4.3261,4.2471,8.6587,6.3549,12.9957,2.0657,4.2504,4.1039,8.5141,6.1701,12.7643,2.1016,4.323,4.2226,8.6367,6.3338,12.9516,2.6091.0045,4.9504-.6089,7.3126-.9907,7.521-1.2154,15.0292-2.5101,22.5429-3.7709,8.9405-1.5001,17.8813-2.9989,26.8226-4.4944,7.0391-1.1773,14.0799-2.3445,21.1181-3.5269,1.0782-.1812,2.0332-.1156,3.0256.5168,7.0791,4.5113,14.1949,8.965,21.2954,13.4429.1586.1.2736.2689.5611.5595-1.1705,8.0275-2.9514,16.096-4.1102,24.4742,4.1243.4528,8.0566-.0089,12.0564.2857.2976,1.0271-.2116,1.9087-.4526,2.7851-3.1439,11.434-6.323,22.8584-9.4919,34.2855-.5372,1.9369-1.0688,3.8754-1.6247,5.8921h-10.6001c-.9979.5622-1.0901,1.3554-1.3075,2.0927-3.654,12.3921-7.313,24.7827-10.9776,37.1718-.1619.5473-.3882,1.0756-.5478,1.5125-.195.1186-.2689.1761-.3523.2108-.0883.0367-.1857.0729-.2792.0729-83.7216.0147-167.4432.0263-251.4544.038M379.431,275.4706c-1.1527.0733-2.3044.1699-3.4581.2163-9.8289.3943-19.6579.7875-29.4875,1.1635-3.8568.1475-7.7158.2389-11.573.3763-7.1298.254-14.259.7483-21.3886.752-96.2758.0506-192.5516.034-288.8274.034-.8691,0-1.7402-.0357-2.6066.0128-.6415.036-1.2769.182-1.9086.278-1.5779,8.9092-3.1305,17.6464-4.6611,26.3874-.0933.5328-.0121,1.0962-.0121,1.8372h476.3726c.5794,0,1.1606.0288,1.7377-.0079.6518-.0414,1.2999-.1417,1.9651-.2182,3.1737-11.464,6.3152-22.7978,9.4354-34.1375.1121-.4073.0143-.8723.0143-1.3834-3.3618,0-6.5452-.0885-9.722.0184-6.7447.2268-13.4861.5531-20.2287.8429-4.3354.1863-8.67.3935-13.0058.5683-9.828.3965-19.6563.7871-29.4851,1.1626-3.8566.1473-7.7161.2185-11.5721.3765-7.1286.2922-14.2552.6344-21.3836.934-6.553.2755-13.1072.5224-20.2046.7867M323.9305,265.9436c3.9786-4.5981,7.9742-9.1816,11.9217-13.8061.8079-.9464,1.7615-1.4479,2.9538-1.6311,3.8107-.5856,7.6183-1.1914,11.4283-1.7822,6.6674-1.034,13.3376-2.0504,20.003-3.0975,5.8076-.9123,11.612-1.8457,17.4142-2.7918,2.4525-.3999,4.8959-.856,7.5892-1.3297-.3215-.9117-.5082-1.6384-.8246-2.3033-1.2028-2.5272-2.4526-5.032-3.6758-7.5495-5.9888-12.3258-11.9717-24.6545-17.9712-36.9751-.2857-.5868-.7092-1.1066-1.1181-1.7337h-10.7665c-3.5725,0-7.1449-.0004-10.7174.0001-3.5724.0005-7.1448.0028-10.7172.0028s-7.1449-.0023-10.7173-.0028-7.1449-.0001-10.7174-.0001h-32.1521c-3.5725,0-7.1449.0066-10.7174-.0018-3.5599-.0084-7.1214.0399-10.6429-.0339-3.6626-5.1935-6.8092-10.5073-10.3699-15.5859-1.0131,0-1.8768-.0002-2.7405,0-9.1725.0026-18.345.0066-27.5176.0074-5.1173.0005-10.2346-.0139-15.3518.0035-.7379.0025-1.5605-.2233-2.3479.6988,0,31.3471-.0006,62.9073.0062,94.4674.0001.4612.0929.9223.1494,1.4488,1.2481.4048,2.4065.2539,3.5389.2541,34.5659.0086,69.1319.007,103.6978.007.4828,0,.9718-.0506,1.4471.0088,1.2961.1622,2.18-.4295,2.9821-1.3816,1.8653-2.2142,3.7902-4.3781,5.9338-6.8925M138.0314,332.246c-42.1992.0098-84.3984.0193-126.5977.0375-.1749,0-.3498.1236-.5246.1898-.7308,1.8558-2.6204,12.2889-2.7089,14.9561,2.1386.3073,460.7406.3683,463.7518.0595.1442-.2338.3583-.4608.4372-.7276,1.2862-4.346,2.5646-8.6943,3.8126-13.0514.1166-.4073.0156-.8769.0156-1.4638-112.617,0-225.1118,0-338.1861,0M326.3672,268.9774c-1.0739,1.2389-2.1649,2.4637-3.2103,3.7263-.2771.3346-.4139.7855-.6582,1.268.4858.0409.7737.0972,1.0587.0846,6.9313-.3077,13.8616-.64,20.7936-.9318,7.8978-.3325,15.7972-.6267,23.6956-.9435,6.5481-.2627,13.0958-.5357,19.6439-.8013,7.7053-.3126,15.4107-.621,23.116-.9339,6.5478-.2659,13.0948-.55,19.6432-.7998,7.3214-.2792,14.6453-.4985,21.9657-.8001,6.6432-.2737,13.282-.6534,19.9251-.9304,6.5494-.2732,13.1021-.4693,19.6524-.7207.6515-.025,1.2973-.1988,1.9978-.3119,1.3309-7.5898,2.6431-15.0726,3.959-22.5765-.6831-.4964-1.2001-.9195-1.7611-1.2724-5.3877-3.3884-10.8186-6.7099-16.1519-10.1816-1.4242-.9271-2.76-1.1422-4.356-.8506-3.4132.6234-6.8426,1.1589-10.2654,1.7295-13.8818,2.3143-27.7599,4.6505-41.6464,6.9362-15.4076,2.5361-30.82,5.0435-46.2357,7.5302-12.0853,1.9495-24.1772,3.8588-36.2708,5.7564-1.4919.2341-2.6591.7889-3.6696,1.9947-3.5933,4.2881-7.2925,8.4875-11.2257,13.0287M110.7971,328.5675h366.8984c1.9266-6.0447,3.6568-12.0271,5.3989-18.1787-1.4393-.2883-2.6765-.1729-3.8988-.1729-153.5494-.0057-307.0988-.0054-460.6481-.0054-.676,0-1.3536-.029-2.0275.0086-.6536.0364-1.3034.1411-1.9604.2165-.1159.5055-.2164.8747-.2841,1.2498-.9247,5.1261-1.8513,10.2518-2.7541,15.3818-.0751.4269.0189.8835.0404,1.5003h99.2353M155.5612,235.741c-6.815-3.992-14.2441-5.8035-22.0698-6.0922-3.8733-.1428-7.7043.4242-11.4641,1.3084-17.9705,4.2261-32.0665,18.8445-35.1601,38.0645-.2549,1.5839-.4911,3.2197-.1119,4.8971,1.1914.4509,2.3564.2835,3.4927.2838,28.3786.009,56.7572.007,85.1358.0069.5792,0,1.161.032,1.7367-.0127.5526-.0428,1.0989-.166,1.7534-.2707,0-.982.093-1.8495-.0191-2.6897-.2418-1.8125-.4842-3.6361-.9097-5.4112-3.1284-13.0508-10.4471-23.0352-22.3839-30.0842M260.5081,180.0586c1.0023,1.535,1.9646,3.0981,3.0181,4.597,1.0399,1.4794,1.7786,3.1869,3.1066,4.3967,24.3538,0,48.5839.0001,72.814-.0035.0874,0,.183-.0407.26-.0869.0811-.0487.1444-.1269.2759-.2476.0385-.2091.1321-.4812.1323-.7534.0093-9.7511.0135-19.5021.0004-29.2532-.0006-.4403-.1675-.8803-.2804-1.4359-38.9702,0-77.7682-.0005-116.5662.0096-.2702,0-.5402.1449-.7939.2175-.2208,2.5832.7457,13.3994,1.449,15.9229h32.1514c1.4254,2.1434,2.8068,4.2208,4.4328,6.6368M230.6474,104.8273c-3.9614,3.9551-7.9228,7.9102-12.0215,12.0023.3266,4.0765.6437,8.2042.9918,12.3292.3406,4.0358.625,8.0792,1.0958,12.1003.4774,4.0771.4333,8.22,1.2965,12.2096,3.3617.2979,38.763.2393,41.0939-.0709.0628-.6126.1872-1.263.1877-1.9135.0107-15.93.0106-31.86-.0025-47.79-.0004-.546-.1555-1.0919-.2642-1.8073-1.0675-.0111-2.0215-.0292-2.9754-.0295-7.5306-.0024-15.0612-.0288-22.5916.0087-4.7567.0237-3.185-.5322-6.8104,2.9612M338.9503,105.0881c-.5312-.5586-1.1156-1.0764-1.5824-1.6844-.9762-1.2715-2.2335-1.5853-3.7937-1.5736-8.1007.0606-16.2021.027-24.3033.0331-.5505.0004-1.101.0567-1.5453.0811-.1702.3781-.3114.5453-.3114.7126.001,16.7784.0127,33.5569.027,50.3353,0,.0908.0273.1942.0766.2687.0509.0767.1443.1252.3428.2866h32.6974c2.7686-9.3997,5.1976-18.9009,7.8813-28.3291.7604-2.6717,1.4357-5.3677,2.1525-8.0616-3.8715-4.0038-7.6189-7.8793-11.6414-12.0686M284.0535,101.8555c-5.404.0175-10.808.033-16.2119.0615-.1726.0009-.3445.1346-.6699.2701-.0464.4781-.1471,1.034-.1474,1.59-.0083,16.0231-.0087,32.0462.0024,48.0693.0004.5462.1324,1.0923.2105,1.6958.6246.0426,1.0955.1031,1.5663.1027,11.3893-.01,22.7786-.0263,34.1679-.0472.0823-.0001.1688-.0736.2457-.1244.0801-.0529.151-.1199.4095-.33v-2.708c0-15.1544.0087-30.3088-.0198-45.4631-.0019-1.0094.3878-2.1222-.4882-3.1166-6.1339,0-12.3098,0-19.0654,0M244.7777,93.0777c.0467,1.6082-.1033,3.2292.1012,4.7876,3.8233.4779,11.1562.3712,13.1132-.1892.0284-.3352.0942-.7094.0862-1.082-.0683-3.1776-.1015-6.357-.2386-9.5318-.2244-5.197-.5158-10.3912-.7873-15.5862-.0402-.7684-.0822-1.5412-.198-2.3006-1.4225-9.3339-2.8749-18.6633-4.2877-27.9987-1.6434-10.8599-3.2514-21.7251-4.8858-32.5864-.2129-1.4147-.4914-2.8194-.7669-4.385-4.3092.5833-8.4809,1.0927-12.54,1.9178-.0897.3442-.2019.5387-.177.7137.5561,3.9109,1.115,7.8216,1.6983,11.7286,1.2517,8.3845,2.5227,16.766,3.776,25.1502,1.3107,8.7681,2.5914,17.5407,3.9215,26.3058.738,4.8632,1.4103,9.7208,1.204,14.666-.1084,2.5996-.0191,5.2075-.0191,8.3903M48.0338,254.1755c-.0316-7.5144-.0615-15.0287-.1062-22.543-.001-.1624-.1715-.3237-.3339-.611-.2747-.0516-.6403-.1797-1.006-.1799-5.3004-.003-10.6008.0068-15.9011.0336-.2618.0013-.5228.1852-.7725.2797-.6234.9101-.3826,1.9027-.3869,2.8397-.0234,5.0116-.0111,10.0235-.011,15.0353,0,7.5176-.0087,15.0354.013,22.5529.0024.8287-.2649,1.747.6555,2.63,1.8412,0,3.8577,0,5.8742,0,1.9276,0,3.8566.046,5.7824-.0127,1.9858-.0607,4.0053.2907,5.8882-.2444.1219-.3454.238-.5219.2388-.699.0285-6.1672.0462-12.3345.0653-19.0811M268.958,71.8707c-2.6571.2217-5.3467-.5564-8.0682.1431.3447,4.9783.1983,9.8692.9431,14.6593,3.3727.4051,9.3096.3419,11.3213-.0958.4341-3.4849.3191-12.7836-.2185-14.7066h-3.9777M11.7007,304.8589c.6125-3.5705,1.2251-7.141,1.8372-10.7087-3.0338-.5236-7.7068-.4393-9.5321.1336-.0529.1793-.1526.3602-.1531.5414-.0154,5.4827-.0271,10.9654-.014,16.4481.0008.3494.2056.6983.363,1.1981,2.0404-.1111,4.0267.3157,6.1654-.3202.4042-2.2864.804-4.5478,1.3336-7.2923Z"/><path class="h" d="M379.7029,275.4682c6.8255-.2619,13.3797-.5089,19.9327-.7844,7.1284-.2996,14.2549-.6418,21.3836-.934,3.8561-.158,7.7156-.2291,11.5721-.3765,9.8288-.3755,19.6571-.7661,29.4851-1.1626,4.3359-.1749,8.6704-.382,13.0058-.5683,6.7426-.2898,13.484-.6161,20.2287-.8429,3.1768-.1069,6.3602-.0184,9.722-.0184,0,.5111.0978.9761-.0143,1.3834-3.1202,11.3396-6.2617,22.6735-9.4354,34.1375-.6651.0765-1.3132.1768-1.9651.2182-.577.0367-1.1583.0079-1.7377.0079H15.5079c0-.7409-.0812-1.3043.0121-1.8372,1.5306-8.7411,3.0831-17.4782,4.6611-26.3874.6317-.096,1.2671-.2421,1.9086-.278.8664-.0485,1.7375-.0128,2.6066-.0128,96.2758,0,192.5516.0167,288.8274-.034,7.1296-.0037,14.2588-.498,21.3886-.752,3.8572-.1374,7.7162-.2288,11.573-.3763,9.8296-.376,19.6586-.7692,29.4875-1.1635,1.1537-.0463,2.3055-.143,3.73-.2186Z"/><path class="b" d="M323.809,266.1087c-2.0222,2.3494-3.9471,4.5133-5.8124,6.7274-.8022.9522-1.6861,1.5438-2.9821,1.3816-.4753-.0595-.9644-.0088-1.4471-.0088-34.5659,0-69.1319.0016-103.6978-.007-1.1324-.0003-2.2908.1506-3.5389-.2541-.0566-.5265-.1493-.9876-.1494-1.4488-.0068-31.5602-.0062-63.1203-.0062-94.4674.7874-.9221,1.61-.6963,2.3479-.6988,5.1172-.0174,10.2345-.003,15.3518-.0035,9.1725-.0008,18.345-.0048,27.5176-.0074.8637-.0002,1.7275,0,2.7405,0,3.5607,5.0787,6.7073,10.3924,10.3699,15.5859,3.5215.0738,7.083.0255,10.6429.0339,3.5725.0084,7.1449.0018,10.7174.0018h32.1521c3.5725,0,7.1449-.0004,10.7174.0001s7.1449.0028,10.7173.0028,7.1448-.0023,10.7172-.0028c3.5725-.0005,7.1449-.0001,10.7174-.0001h10.7665c.4089.6271.8324,1.1468,1.1181,1.7337,5.9995,12.3206,11.9824,24.6493,17.9712,36.9751,1.2232,2.5176,2.473,5.0223,3.6758,7.5495.3165.6649.5031,1.3917.8246,2.3033-2.6932.4737-5.1366.9298-7.5892,1.3297-5.8022.946-11.6066,1.8795-17.4142,2.7918-6.6654,1.0471-13.3356,2.0635-20.003,3.0975-3.8099.5908-7.6176,1.1966-11.4283,1.7822-1.1923.1832-2.1459.6846-2.9538,1.6311-3.9475,4.6246-7.9431,9.2081-12.0432,13.9712Z"/><path class="j" d="M138.3211,332.246h337.8963c0,.587.101,1.0566-.0156,1.4638-1.2479,4.3571-2.5264,8.7054-3.8126,13.0514-.079.2668-.2931.4938-.4372.7276-3.0112.3089-461.6131.2478-463.7518-.0595.0885-2.6672,1.9781-13.1003,2.7088-14.9563.1748-.066.3497-.1895.5247-.1896,42.1992-.0182,84.3984-.0277,126.8874-.0375Z"/><path class="d" d="M326.5043,268.8233c3.7961-4.3871,7.4953-8.5865,11.0886-12.8746,1.0105-1.2058,2.1777-1.7607,3.6696-1.9947,12.0936-1.8976,24.1854-3.8069,36.2708-5.7564,15.4157-2.4867,30.8281-4.9942,46.2357-7.5302,13.8865-2.2857,27.7646-4.6219,41.6464-6.9362,3.4229-.5706,6.8522-1.1061,10.2654-1.7295,1.5961-.2916,2.9319-.0764,4.356.8506,5.3332,3.4717,10.7642,6.7932,16.1519,10.1816.561.3529,1.078.7759,1.7611,1.2724-1.3159,7.5039-2.6281,14.9867-3.959,22.5765-.7005.1131-1.3463.287-1.9978.3119-6.5504.2514-13.103.4475-19.6524.7207-6.6431.2771-13.2819.6567-19.9251.9304-7.3205.3016-14.6443.521-21.9657.8001-6.5484.2498-13.0954.5339-19.6432.7998-7.7053.3129-15.4107.6213-23.116.9339-6.548.2657-13.0957.5386-19.6439.8013-7.8984.3169-15.7978.611-23.6956.9435-6.932.2918-13.8622.6242-20.7936.9318-.285.0126-.5729-.0436-1.0587-.0846.2443-.4826.3811-.9334.6582-1.268,1.0454-1.2626,2.1363-2.4874,3.3473-3.8804Z"/><path class="i" d="M110.5073,328.5675H11.5618c-.0215-.6168-.1155-1.0734-.0404-1.5003.9027-5.13,1.8294-10.2558,2.7541-15.3818.0677-.3752.1682-.7444.2841-1.2498.657-.0754,1.3068-.1801,1.9604-.2165.6739-.0375,1.3515-.0086,2.0275-.0086,153.5494,0,307.0988-.0003,460.6481.0054,1.2222,0,2.4595-.1153,3.8988.1729-1.7422,6.1515-3.4724,12.1339-5.3989,18.1787H110.5073M453.8331,324.9828c6.6619-.0197,13.3238-.0378,19.9857-.0681.1753-.0008.35-.1343.5247-.2063,1.1351-2.1372,3.1055-8.1998,3.3661-10.3978-1.1842-.534-2.4513-.2784-3.6768-.2786-150.7449-.0122-301.4898-.0115-452.2347-.0115-.676,0-1.3539-.0308-2.0274.0105-.6469.0396-1.2891.1544-2.0499.251-.3538,1.8033-.8082,3.4853-.9848,5.1959-.1808,1.7523-1.0927,3.4778-.4495,5.5047,145.7399,0,291.3535,0,437.5465.0002Z"/><path class="b" d="M155.7484,235.8409c11.7496,6.9491,19.0683,16.9335,22.1966,29.9843.4255,1.7751.6679,3.5987.9097,5.4112.1121.8402.0191,1.7077.0191,2.6897-.6545.1047-1.2008.2279-1.7534.2707-.5758.0446-1.1576.0127-1.7367.0127-28.3786.0002-56.7572.0022-85.1358-.0069-1.1363-.0004-2.3014.167-3.4927-.2838-.3792-1.6774-.143-3.3132.1119-4.8971,3.0935-19.2201,17.1896-33.8385,35.1601-38.0645,3.7599-.8842,7.5909-1.4512,11.4641-1.3084,7.8258.2887,15.2548,2.1002,22.2571,6.1921Z"/><path class="e" d="M260.3859,179.8893c-1.5037-2.2467-2.8852-4.3241-4.3105-6.4675h-32.1514c-.7033-2.5235-1.6697-13.3397-1.449-15.9229.2537-.0726.5238-.2174.7939-.2175,38.798-.0101,77.596-.0096,116.5662-.0096.1129.5556.2798.9956.2804,1.4359.0131,9.7511.0089,19.5021-.0004,29.2532-.0003.2721-.0939.5442-.1323.7534-.1315.1207-.1948.1989-.2759.2476-.077.0462-.1726.0869-.26.0869-24.2301.0037-48.4602.0035-72.814.0035-1.328-1.2098-2.0667-2.9173-3.1066-4.3967-1.0536-1.499-2.0158-3.062-3.1404-4.7663Z"/><path class="k" d="M230.7968,104.6772c3.476-3.3434,1.9043-2.7875,6.661-2.8111,7.5304-.0375,15.061-.0111,22.5916-.0087.9539.0003,1.9079.0185,2.9754.0295.1088.7154.2638,1.2613.2642,1.8073.0131,15.93.0132,31.86.0025,47.79-.0005.6505-.1249,1.3009-.1877,1.9135-2.3309.3102-37.7322.3688-41.0939.0709-.8632-3.9896-.8191-8.1325-1.2965-12.2096-.4708-4.0211-.7552-8.0645-1.0958-12.1003-.3481-4.125-.6651-8.2527-.9918-12.3292,4.0987-4.0921,8.0601-8.0472,12.1709-12.1524M236.4585,115.4126c-.0515.283-.1476.566-.148.8491-.0085,6.4618-.0105,12.9237.0043,19.3855.0008.3599.1566.7195.236,1.0605.3785.0986.6504.2307.9227.2314,4.822.0123,9.6441.0156,14.466-.0069.3439-.0016.6868-.2175,1.1576-.3769,0-.8424.0034-1.605-.0006-2.3676-.0321-6.169-.0653-12.3381-.1022-18.5071-.0005-.0925-.035-.1957-.0851-.2739-.0493-.077-.1386-.1284-.2102-.1915-.1727-.0712-.3456-.2048-.5181-.2045-5.1072.0115-10.2143.0363-15.7224.4019Z"/><path class="d" d="M339.0879,105.245c3.885,4.0324,7.6324,7.908,11.5039,11.9117-.7167,2.6939-1.392,5.3899-2.1525,8.0616-2.6837,9.4283-5.1126,18.9295-7.8813,28.3291h-32.6974c-.1985-.1614-.2919-.2099-.3428-.2866-.0493-.0745-.0766-.178-.0766-.2687-.0143-16.7784-.026-33.5569-.027-50.3353,0-.1672.1412-.3344.3114-.7126.4443-.0244.9948-.0807,1.5453-.0811,8.1012-.006,16.2026.0276,24.3033-.0331,1.5601-.0117,2.8174.3021,3.7937,1.5736.4668.608,1.0512,1.1257,1.72,1.8413M313.3558,122.0696c0,7.7043-.008,15.4087.0117,23.1129.0022.8343-.2417,1.7356.5541,2.6888,2.9797-.0439,6.1152.1902,9.3123-.1665.4105-.9938.7932-1.8693,1.1365-2.76,1.4186-3.681,2.8217-7.368,4.2373-11.0501,2.0025-5.2086,4.0363-10.4054,5.9938-15.6308.3522-.9402,1.0511-1.8667.6589-3.0907-.387-.0775-.7473-.212-1.108-.2127-6.4523-.0124-12.9046-.0155-19.3568.0071-.4394.0016-.8781.223-1.4398.3755,0,2.1184,0,4.1353,0,6.7264Z"/><path class="g" d="M284.3433,101.8555c6.4658,0,12.6417,0,18.7756,0,.876.9944.4863,2.1072.4882,3.1166.0285,15.1543.0198,30.3087.0198,45.4631v2.708c-.2586.2101-.3294.2771-.4095.33-.0769.0508-.1634.1242-.2457.1244-11.3893.0209-22.7786.0372-34.1679.0472-.4708.0004-.9418-.0601-1.5663-.1027-.0781-.6035-.2101-1.1496-.2105-1.6958-.0111-16.0231-.0108-32.0462-.0024-48.0693.0003-.5559.101-1.1118.1474-1.59.3254-.1356.4973-.2692.6699-.2701,5.4039-.0285,10.8079-.044,16.5017-.0615M280.1469,131.3315c.0002,4.7257-.01,9.4515.0119,14.1771.0034.7296.1549,1.4586.2323,2.1379,3.774.4248,14.5504.3212,16.5614-.1327.4031-2.5284.5607-19.6653.27-30.5991-.0147-.5544-.1327-1.106-.2011-1.6468-.3941-.1224-.6619-.2773-.9302-.2782-4.9181-.0169-9.8363-.0226-14.7544-.0022-.3436.0014-.6863.2247-1.19.401,0,5.1583,0,10.261.0001,15.9431Z"/><path class="f" d="M244.7777,92.7884c0-2.8935-.0893-5.5014.0191-8.101.2063-4.9452-.466-9.8028-1.204-14.666-1.3301-8.7651-2.6108-17.5377-3.9215-26.3058-1.2533-8.3842-2.5243-16.7658-3.776-25.1502-.5833-3.907-1.1421-7.8176-1.6983-11.7286-.0249-.175.0873-.3695.177-.7137,4.0591-.825,8.2308-1.3344,12.54-1.9178.2756,1.5655.5541,2.9703.7669,4.385,1.6344,10.8613,3.2423,21.7265,4.8858,32.5864,1.4128,9.3354,2.8652,18.6648,4.2877,27.9987.1158.7594.1578,1.5322.198,2.3006.2715,5.195.5629,10.3891.7873,15.5862.137,3.1748.1703,6.3542.2386,9.5318.008.3726-.0578.7468-.0862,1.082-1.957.5604-9.2898.6672-13.1132.1892-.2045-1.5584-.0545-3.1793-.1012-5.0769Z"/><path class="b" d="M48.0339,254.4652c-.0191,6.457-.0368,12.6242-.0653,18.7914-.0008.177-.1169.3536-.2388.699-1.8829.5351-3.9024.1837-5.8882.2444-1.9258.0588-3.8548.0127-5.7824.0127-2.0165,0-4.033,0-5.8742,0-.9204-.883-.6531-1.8013-.6555-2.63-.0218-7.5176-.013-15.0353-.013-22.5529,0-5.0118-.0123-10.0236.011-15.0353.0044-.937-.2364-1.9296.3869-2.8397.2497-.0945.5106-.2783.7725-.2797,5.3003-.0267,10.6007-.0366,15.9011-.0336.3657.0002.7313.1283,1.006.1799.1623.2873.3329.4486.3339.611.0447,7.5143.0746,15.0287.1063,22.8328Z"/><path class="j" d="M269.2433,71.8707h3.6923c.5376,1.9231.6526,11.2218.2185,14.7066-2.0117.4376-7.9486.5009-11.3213.0958-.7448-4.7901-.5984-9.681-.9431-14.6593,2.7215-.6995,5.4111.0786,8.3536-.1431Z"/><path class="b" d="M11.6357,305.1005c-.4647,2.503-.8645,4.7643-1.2687,7.0507-2.1387.636-4.125.2092-6.1654.3202-.1574-.4999-.3622-.8488-.363-1.1981-.0131-5.4827-.0014-10.9654.014-16.4481.0005-.1812.1001-.3621.1531-.5414,1.8252-.5729,6.4983-.6573,9.5321-.1336-.6121,3.5677-1.2246,7.1382-1.9021,10.9503Z"/><path class="b" d="M453.5434,324.9827c-145.9033-.0001-291.5168-.0001-437.2567-.0001-.6432-2.0268.2686-3.7524.4495-5.5047.1765-1.7106.631-3.3926.9848-5.1959.7608-.0966,1.403-.2114,2.0499-.251.6735-.0413,1.3514-.0105,2.0274-.0105,150.7449,0,301.4898-.0007,452.2347.0115,1.2255.0001,2.4926-.2555,3.6768.2786-.2605,2.198-2.231,8.2607-3.3659,10.398-.1749.0718-.3496.2053-.5248.2061-6.6619.0303-13.3238.0484-20.2755.068Z"/><path class="b" d="M236.659,115.2411c5.3076-.1942,10.4147-.219,15.5219-.2304.1725-.0004.3454.1333.518.2047.0717.0629.161.1143.2103.1913.05.0781.0845.1814.0851.2739.0369,6.169.0701,12.3381.1022,18.5071.004.7626.0006,1.5252.0006,2.3676-.4707.1594-.8137.3753-1.1576.3769-4.8219.0224-9.644.0191-14.466.0069-.2723-.0007-.5442-.1327-.9227-.2314-.0793-.341-.2351-.7006-.236-1.0605-.0148-6.4618-.0127-12.9237-.0043-19.3855.0004-.2831.0965-.5661.3485-1.0206Z"/><path class="b" d="M313.3558,121.7824c0-2.304,0-4.3209,0-6.4393.5617-.1525,1.0003-.374,1.4398-.3755,6.4522-.0227,12.9045-.0195,19.3568-.0071.3606.0007.721.1352,1.108.2127.3922,1.2239-.3067,2.1504-.6589,3.0907-1.9574,5.2255-3.9912,10.4223-5.9938,15.6308-1.4156,3.6822-2.8187,7.3691-4.2373,11.0501-.3433.8907-.726,1.7662-1.1365,2.76-3.1971.3568-6.3325.1227-9.3123.1665-.7958-.9532-.552-1.8546-.5541-2.6888-.0197-7.7043-.0117-15.4086-.0117-23.4Z"/><path class="b" d="M280.1468,131.0417c0-5.3924,0-10.495,0-15.6533.5037-.1763.8464-.3996,1.19-.401,4.9181-.0203,9.8362-.0147,14.7544.0022.2683.0009.5361.1558.9302.2782.0684.5408.1864,1.0924.2011,1.6468.2908,10.9338.1332,28.0707-.27,30.5991-2.0111.454-12.7875.5575-16.5614.1327-.0773-.6793-.2289-1.4083-.2323-2.1379-.022-4.7256-.0117-9.4514-.012-14.4668Z"/></svg>