<?xml version="1.0" encoding="UTF-8"?><svg id="a" xmlns="http://www.w3.org/2000/svg" viewBox="0 0 512 424.5"><defs><style>.b{fill:#4d7796;}.b,.c,.d,.e,.f{stroke-width:0px;}.c{fill:#2a2f33;}.d{fill:#0d0d0d;}.e{fill:#040404;}.f{fill:#010101;}</style></defs><path class="b" d="M399.8931,319.3299c-2.2675,2.009-4.8328,2.4066-7.7602,2.4051-121.3467-.0634-242.6935-.0543-364.0402-.0543h-1.3166c.1216-.2358.1957-.4348.3145-.602,2.3589-3.3191,4.7355-6.6258,7.0729-9.96.3557-.5073.7334-.7323,1.3303-.6635.266.0307.5386.0052.8082.0052,116.5953,0,233.1906.0012,349.7859-.027.7489-.0002,1.602-.2475,2.2312-.652,13.185-8.4752,26.342-16.994,39.5204-25.4795.4745-.3056,1.1106-.5097,1.6716-.5103,24.9703-.0249,49.9406-.0215,74.9108-.0215h1.0606c-.3911,1.8485-.6724,3.6002-1.1411,5.3002-.8204,2.9754-1.7687,5.9154-2.6347,8.8786-.2268.7761-.6531.9823-1.458.9813-22.7462-.0256-45.4924-.026-68.2385.0056-.6845.001-1.4641.2425-2.0384.618-10.0216,6.5545-20.018,13.1475-30.0785,19.7759Z"/><path class="b" d="M219.5614,276.1231c-.5802.1619-1.0963.3742-1.6127.375-12.4262.0185-24.8525.0168-37.2787.0114-1.6174-.0007-2.2103-.5882-2.2142-2.182-.0095-3.8726-.0101-7.7454.0003-11.618.0042-1.5709.5728-2.1364,2.1288-2.1368,12.4936-.0036,24.9872-.0035,37.4808-.0001,1.5709.0004,2.1307.5551,2.134,2.1234.0083,3.9063.0254,7.813-.023,11.7187-.0069.5556-.3591,1.1069-.6154,1.7084Z"/><path class="b" d="M381.011,260.5706c2.4244.0002,4.7479-.0147,7.0711.0069,1.1946.0111,1.8155.6233,1.8195,1.8071.0152,4.4777.0061,8.9554.0061,13.5048h-16.4736c-.0161-.3116-.0443-.6061-.0446-.9007-.0029-4.0406-.0042-8.0812-.001-12.1218.0014-1.7774.5121-2.2919,2.2686-2.2954,1.7509-.0036,3.5019-.0009,5.3539-.0009Z"/><path class="b" d="M264.7464,276.5123c-2.6921,0-5.2832.0067-7.8743-.0028-1.6768-.0061-2.227-.569-2.2284-2.256-.0033-3.8361-.0041-7.6722.0004-11.5083.0019-1.6266.547-2.1709,2.1786-2.1729,3.8697-.0049,7.7395-.005,11.6092,0,1.6323.0021,2.1697.5436,2.171,2.1742.003,3.8697.0035,7.7395-.0004,11.6093-.0016,1.5594-.5637,2.1335-2.1209,2.1531-1.2112.0153-2.4228.0033-3.7353.0035Z"/><path class="b" d="M328.6091,274.691c-.0015-4.063-.0051-8.034,0-12.005.002-1.5848.5284-2.1113,2.1166-2.1137,3.9037-.0058,7.8074-.0064,11.7111.0004,1.5578.0027,2.1117.5596,2.1155,2.1427.0092,3.87.0088,7.7401.0002,11.6101-.0036,1.6014-.5857,2.1799-2.2046,2.1839-3.87.0097-7.7401.0102-11.6101-.0005-1.4464-.004-1.9303-.4163-2.1286-1.818Z"/><path class="b" d="M293.5051,276.5051c-3.9928.0055-7.8978.0085-11.8027.0061-1.9053-.0011-2.403-.4961-2.4038-2.3789-.0016-3.804-.0034-7.6079.001-11.4119.0018-1.5861.5422-2.1447,2.0959-2.1474,3.9386-.0069,7.8772-.0077,11.8158.0007,1.4379.003,2.0444.5886,2.0488,2.0044.0125,3.9722.0115,7.9446,0,11.9168-.0036,1.2394-.4171,1.7079-1.755,2.0101Z"/><path class="b" d="M318.6721,276.4124c-1.1896.0454-2.2982.0924-3.4069.0963-3.0636.0108-6.1274.014-9.191-.0006-1.5723-.0075-2.113-.5715-2.1144-2.1475-.0036-3.939-.006-7.8781.0013-11.8171.0026-1.3858.5707-1.9651,1.9566-1.9689,4.0063-.011,8.0127-.0108,12.0191.0003,1.3537.0038,1.9662.6112,1.9714,1.982.0152,3.9726.0049,7.9454.0057,11.9181.0002.8753-.2618,1.5893-1.2418,1.9374Z"/><path class="b" d="M244.8302,270.7266c-.0003,1.3477.0166,2.5946-.0058,3.8409-.0235,1.3103-.6066,1.9275-1.9247,1.9351-4.0429.0234-8.0862.0254-12.1291-.0026-1.2692-.0088-1.8597-.6226-1.8656-1.8842-.0189-4.0767-.0201-8.1536.0019-12.2302.0066-1.2136.6099-1.8027,1.8149-1.8075,4.0767-.0165,8.1536-.0159,12.2303-.0012,1.2944.0047,1.8645.6073,1.8729,1.9625.0166,2.6953.0051,5.3908.0052,8.1873Z"/><path class="b" d="M363.3953,276.2021c-.5246.1299-.9781.2916-1.4343.2992-1.8179.0302-3.6367.023-5.4551.009-1.5619-.012-2.1585-.6001-2.1612-2.1255-.0068-3.9062-.0067-7.8125,0-11.7188.0026-1.5054.5753-2.0862,2.0598-2.0941,1.9194-.0102,3.839-.0125,5.7583.001,1.3856.0098,1.9767.5763,1.9827,1.9638.0172,4.0072.0313,8.0149-.0248,12.0214-.0076.5379-.4269,1.07-.7253,1.6438Z"/><path class="d" d="M164.8574,276.5201c-4.6476,0-9.1946.0043-13.7416-.003-1.1829-.0019-1.6919-.3989-1.7831-1.3301-.1144-1.1678.458-1.772,1.7458-1.7748,4.5807-.0097,9.1614-.0039,13.7421-.0038.7747,0,1.5502-.0223,2.3238.007,1.051.0399,1.5539.5768,1.5393,1.5832-.014.963-.4944,1.4683-1.5031,1.5127-.7396.0326-1.4817.0079-2.3233.0087Z"/><path class="e" d="M160.2095,260.5694c2.3223.0001,4.5435-.0053,6.7647.0026,1.2027.0042,1.6913.4401,1.7052,1.4832.0142,1.0636-.535,1.5698-1.7443,1.5709-5.2838.0044-10.5675.0042-15.8513,0-1.2315-.001-1.7568-.4802-1.7486-1.5593.0083-1.0816.4917-1.4937,1.7873-1.4957,2.9952-.0046,5.9905-.0016,9.0869-.0016Z"/><path class="f" d="M153.5375,267.2826c4.577,0,9.0531-.005,13.5291.0033,1.2895.0024,2.0292,1.0185,1.4688,2.1527-.202.4089-.8429.8476-1.288.8523-5.4851.0578-10.971.0436-16.4567.0321-.9806-.002-1.4584-.5393-1.454-1.5276.0044-.9833.4838-1.4879,1.4748-1.5085.8746-.0183,1.75-.004,2.726-.0041Z"/><path class="c" d="M232.8921,131.5066c-.3376.162-.7426.5266-.9452.8372l-.3646.5536-.0405,5.3066-.0405,5.3066h-4.3749c-2.9031,0-4.3884.0405-4.3884.135,0,.081,2.3765,8.2772,5.2661,18.2287,2.9031,9.938,5.2661,18.1072,5.2661,18.1612,0,.0405-20.8077.0675-46.2468.0675h-46.2468v26.1953h62.5041l2.0254,2.2415,2.0389,2.2415-.5401.9587c-.2971.5401-1.1882,2.1739-1.9849,3.6322l-1.4583,2.6735-51.4994-.0405-51.4994-.027-1.9039-4.1318c-1.0532-2.2685-2.1199-4.6179-2.39-5.1985s-2.0524-4.4424-3.9698-8.5607c-1.9039-4.1183-3.9158-8.4662-4.4559-9.6544-1.7959-3.9428-2.0659-4.4424-2.4845-4.6989-.6346-.3781-1.4043-.2971-1.9579.189-.6481.5536-.7562,1.1612-.3646,2.0524.1485.3781.243.7291.1755.7697-.054.054-4.1588,1.9579-9.1413,4.2534-4.969,2.282-9.3574,4.3749-9.749,4.6179-1.1342.7562-1.9984,1.8634-2.498,3.2677-.3376.9182-.4051,3.0246-.1215,3.8618.3376.9857,5.6981,12.5305,6.0897,13.0976,1.4853,2.1739,4.3614,3.2407,6.9134,2.5655.4186-.108,4.861-2.0794,9.857-4.4019,4.996-2.309,9.1548-4.2264,9.2359-4.2534.1215-.054,3.5647,7.1159,3.5647,7.44,0,.054-.243.3781-.5536.7021-.2971.3241-.7426.9992-.9722,1.4988l-.4321.9047-.0405,4.1453-.0405,4.1588h-8.4527l-9.5059,19.8625c-5.2256,10.9237-9.5194,19.9165-9.5464,19.984s12.9626.135,32.6766.1485l32.7171.0405v26.0603l-47.4621.0405-47.4621.0405-17.351,24.1969-17.351,24.1969,232.3144.0405,232.3144.027,1.3503-.9047c4.4019-2.9166,9.938-7.683,14.1779-12.193,9.776-10.3701,16.4598-21.4288,21.3208-35.2826,2.5655-7.278,4.5504-15.4066,5.5361-22.6171l.081-.5671-40.8052-.0135h-40.8187l-22.6846-21.5909-22.6846-21.6044-4.3344-.027-4.3344-.0405-25.3446-25.2231-25.3581-25.2096h-9.8165l-.0405-4.834-.0405-4.8205-.3241-.5671c-.189-.3241-.5671-.7426-.8642-.9452-.4726-.3376-.6751-.3781-1.5798-.3781s-1.1072.0405-1.5798.3781c-.2971.2025-.6751.6211-.8642.9452l-.3241.5671-.0405,4.8205-.0405,4.834h-3.4972v-9.83c0-6.6703-.054-9.992-.1485-10.3566-.3376-1.2287-1.3908-2.0119-2.687-2.0119s-2.3495.7832-2.687,2.0119c-.0945.3646-.1485,3.6862-.1485,10.3566v9.83l-11.5718-.0135h-11.5853l-15.096-18.2287-15.096-18.2152h-9.5734v-5.2391c0-5.8602.0135-5.7657-.9857-6.5623-.6886-.5536-1.7824-.6346-2.633-.2025ZM259.6005,165.1824l15.1771,18.2962h47.9752l9.7085,9.6544,9.7085,9.6409-99.002.0135h-99.0155v-19.3089h46.8545c31.7179,0,46.8545-.0405,46.8545-.135,0-.081-.2025-.7967-.4591-1.5933s-2.633-8.8848-5.2796-17.9856c-2.6465-9.1008-4.834-16.6219-4.861-16.7164-.0405-.1215,1.7283-.162,8.5472-.162h8.6147l15.1771,18.2962ZM88.2915,199.9925c2.0659,4.4829,3.7808,8.2637,3.8213,8.3987.054.243-1.0667.7967-9.1548,4.5234-8.8578,4.0778-9.2494,4.2399-10.0325,4.2399-.9047,0-1.6473-.3106-2.255-.9587-.2025-.216-1.5798-3.0246-3.1596-6.4408-2.5115-5.4416-2.7951-6.1302-2.7951-6.7649,0-.8777.4321-1.8364,1.0532-2.3225.3511-.2836,18.3772-8.7633,18.7013-8.8038.0405,0,1.7554,3.6592,3.8213,8.1286ZM358.0219,218.4642l12.2065,12.1389h-169.9183l.3916-.7156c1.0532-1.8499,10.6942-19.5384,10.6942-19.606s-1.9714-2.282-3.0921-3.4837l-.4726-.4996,68.9854.0135h68.9989l12.2065,12.1525ZM111.6107,226.8899v3.7132l-2.7276-.027-2.714-.0405-1.6608-3.5782c-.9182-1.9714-1.6743-3.6187-1.6743-3.6862,0-.054,1.9714-.0945,4.3884-.0945h4.3884v3.7132ZM129.2992,226.8899v3.7132h-12.6926v-7.4265h12.6926v3.7132ZM147.933,226.8899v3.7132h-13.6378v-7.4265h13.6378v3.7132ZM166.4317,226.8899v3.7132h-13.5027v-7.4265h13.5027v3.7132ZM185.0655,226.8899v3.7132h-13.6378v-7.4265h13.6378v3.7132ZM200.4586,223.2577c0,.0405-.8912,1.7148-1.9849,3.7132l-1.9984,3.6322h-6.4138v-7.4265h5.1985c2.8626,0,5.1985.0405,5.1985.081ZM101.4431,228.3482c.5401,1.1747.9857,2.1604.9857,2.2009,0,.027-.5131.054-1.1477.054h-1.1477v-2.471c.0135-1.8769.0405-2.39.162-2.2009.081.1485.5941,1.2287,1.1477,2.417ZM403.6476,254.3139c11.8149,11.2478,21.4963,20.4971,21.4963,20.5511s-10.3971,4.996-23.0897,11.0047l-23.0897,10.8967-121.295-.027-121.2815-.0405-.0405-14.691-.027-14.6775h-31.6639c-25.2366,0-31.6639-.0405-31.6639-.1755,0-.081,3.5512-7.575,7.8856-16.6354l7.8721-16.4733,142.7778-.0675c78.5318-.0405,144.5467-.081,146.6936-.0945l3.9158-.0405,21.5098,20.4701ZM506.5653,277.2145c0,.4321-1.1747,5.8602-1.7689,8.2097-3.0921,12.1525-7.5615,22.6306-13.4217,31.4613-6.2518,9.4384-14.988,18.5662-23.1437,24.1564l-1.4043.9587h-228.4526c-161.4251,0-228.4526-.0405-228.4121-.1485.027-.0675,6.7784-9.5194,15.015-20.9967l14.961-20.8482h340.0661l24.2239-11.4638,24.2239-11.4638,39.0634-.0135c30.6242-.0135,39.0499.027,39.0499.1485Z"/><path class="b" d="M88.2915,199.9925c2.0659,4.4829,3.7808,8.2637,3.8213,8.3987.054.243-1.0667.7967-9.1548,4.5234-8.8578,4.0778-9.2494,4.2399-10.0325,4.2399-.9047,0-1.6473-.3106-2.255-.9587-.2025-.216-1.5798-3.0246-3.1596-6.4408-2.5115-5.4416-2.7951-6.1302-2.7951-6.7649,0-.8777.4321-1.8364,1.0532-2.3225.3511-.2836,18.3772-8.7633,18.7013-8.8038.0405,0,1.7554,3.6592,3.8213,8.1286Z"/><path class="b" d="M259.6005,165.1824l15.1771,18.2962h47.9752l9.7085,9.6544,9.7085,9.6409-99.002.0135h-99.0155v-19.3089h46.8545c31.7179,0,46.8545-.0405,46.8545-.135,0-.081-.2025-.7967-.4591-1.5933s-2.633-8.8848-5.2796-17.9856c-2.6465-9.1008-4.834-16.6219-4.861-16.7164-.0405-.1215,1.7283-.162,8.5472-.162h8.6147l15.1771,18.2962Z"/><path class="b" d="M337.5648,210.6682c5.3409,4.9921,10.6289,9.9348,15.9164,14.8779.2212.2068.5007.3829.6422.6354.1789.3191.4204.7778.3093,1.0364-.1134.2641-.6194.3624-.958.524-.0549.0262-.1329.004-.2002.004-9.1242,0-18.2484.0002-27.3727-.0015-.1957,0-.3915-.0214-.6838-.0385v-1.1185c0-4.5116-.0025-9.0232.0011-13.5348.0018-2.3276,1.1389-3.4736,3.463-3.4843,2.0538-.0094,4.1097.0533,6.1605-.0245,1.0987-.0417,1.9819.2115,2.7221,1.1243Z"/><path class="b" d="M310.4435,209.566c1.5157,0,2.9304-.0107,4.3449.0029,1.5771.0151,2.3076.7279,2.3105,2.2727.0084,4.547.0082,9.0939.0002,13.6409-.0027,1.5656-.7108,2.2594-2.2945,2.2616-4.3449.006-8.6897.0056-13.0346.0002-1.6233-.002-2.2842-.642-2.2877-2.2459-.0098-4.5469-.0094-9.0939-.0003-13.6409.0032-1.5952.6804-2.2792,2.2717-2.2873,2.8628-.0146,5.7258-.0041,8.6898-.0041Z"/><path class="b" d="M268.372,217.7779c0,2.6271.0068,5.1532-.0025,7.6792-.0059,1.5871-.6966,2.2842-2.2706,2.2867-4.3785.0069-8.7569.0074-13.1354-.0004-1.5362-.0027-2.2075-.671-2.2109-2.2196-.0102-4.5805-.0111-9.1611.0007-13.7416.0039-1.5081.7113-2.207,2.2439-2.2115,4.3784-.0129,8.7569-.0143,13.1353.0008,1.5054.0052,2.2253.7433,2.236,2.2449.0138,1.9534.0035,3.9069.0035,5.9615Z"/><path class="b" d="M276.9941,227.7211c-1.1307-.2618-1.5991-.9751-1.6015-1.994-.011-4.717-.0202-9.4342.0089-14.151.0079-1.2798.7468-1.9923,2.0442-1.9994,4.4811-.0245,8.9625-.0234,13.4436-.0022,1.3774.0065,2.1202.7688,2.1251,2.1521.0165,4.616.0154,9.232.0012,13.848-.0045,1.4451-.7405,2.1661-2.1864,2.1679-4.5822.0056-9.1644-.0054-13.8351-.0214Z"/><path class="b" d="M243.7129,227.4606c-.2113.1614-.4181.2768-.6251.2772-4.9166.0101-9.8332.0087-14.7499.0047-.1937-.0002-.3874-.0459-.7226-.0882.1656-.3967.2827-.7309.4397-1.0453,2.6394-5.2833,5.3037-10.5544,7.9078-15.855.4384-.8924.9967-1.2442,1.9613-1.2011,1.2435.0556,2.4914.0085,3.7374.0148,1.5894.0081,2.0548.4676,2.0555,2.0332.0022,5.2534.0005,10.5068-.004,15.8597Z"/></svg>